<svg xmlns="http://www.w3.org/2000/svg" version="1.1" xmlns:xlink="http://www.w3.org/1999/xlink" xmlns:svgjs="http://svgjs.dev/svgjs" width="100%" height="100%" viewBox="0 0 1000 600"><rect width="1000" height="600" x="0" y="0" fill="white"/><g><rect width="333.3333333333333" height="333.3333333333333" y="148.27401766525148" fill="#dbb98f" transform="matrix(0.9916557430933736,0,0,0.9916557430933736,0,-12.312757848567657)" x="126.05181121826172"/><path d="M334.7377594026085 317.5030404960663L334.7377594026085 317.5030404960663Q334.54403886260593 318.11187647893144 334.04590033117086 319.1081535418017Q333.5477617997358 320.10443060467185 332.9666001797282 321.21140511897204Q332.35776419686306 322.2907052704147 331.74892821399794 322.98256434185237Q331.16776659399034 323.7020977761475 330.97404605398776 323.48070287328744L330.97404605398776 323.48070287328744Q330.97404605398776 323.48070287328744 331.16776659399034 322.4844258104173Q331.3614871339929 321.48814874754714 331.6659051254254 320.2981511446744Q331.970323116858 319.1081535418017 332.247066745433 318.0011790275015Q332.55148473686563 316.9218788760587 332.55148473686563 316.50676343319617L332.55148473686563 316.50676343319617Q335.5403159254762 300.5663304272732 332.55148473686563 289.0261211156935Q329.56265354825507 277.4582374412563 322.50569101959127 270.09685692115994Q315.42105412806984 262.70780203820607 305.1538655079354 259.1378092295879Q294.88667688780106 255.5401420581122 283.54018811622393 255.34642151810965L283.54018811622393 255.34642151810965Q275.3762510732598 255.34642151810965 267.4890576588708 256.6471165724124Q259.6295386073393 257.9478116267152 253.15373769868313 259.94036575245553Q246.67793679002693 261.9329198781959 242.1946900071111 264.31291508394133Q237.71144322419525 266.6929102896868 236.52144562132253 268.9068593182872L236.52144562132253 268.9068593182872Q235.11005311558975 271.2868545240327 235.71888909845487 268.2980233354221L235.71888909845487 268.2980233354221Q237.32400214419016 263.1229174810686 244.18724413285145 258.7226937867253Q251.05048612151273 254.35014445523947 260.23837459020444 251.55503380663143Q269.3985886960387 248.75992315802344 279.44438241331306 247.87434354658325Q289.51785049344505 246.98876393514308 297.68178753640905 248.98131806088347L297.68178753640905 248.98131806088347Q303.07828829362256 250.1713156637562 308.44711468797857 252.3575903294991Q313.8159410823346 254.543864995242 318.714303308113 257.64339363528256Q323.58499117103395 260.71524791246566 327.6807968739447 265.004774155379Q331.74892821399794 269.2943003982923 334.54403886260593 274.8845216955083L334.54403886260593 274.8845216955083Q339.94053961981945 285.6221744842204 339.8298421683895 297.0793607072276Q339.7191447169595 308.53654693023464 334.7377594026085 317.5030404960663ZM347.689361219921 316.11932235319114L347.689361219921 316.11932235319114Q343.92564787130027 327.2720905847657 337.64356750264653 336.2385841505974Q331.3614871339929 345.20507771642906 324.19382715389906 352.2897146079504Q317.0261671738052 359.3466771366143 309.4433917508487 364.54945735382523Q301.86061632789233 369.72456320817867 295.3017923306636 373.29455601679683L295.3017923306636 373.29455601679683Q293.3092382049232 374.2908330796671 291.8978456991905 374.8996690625322Q290.5141275563152 375.5085050453973 290.5141275563152 375.09338960253467L290.5141275563152 375.09338960253467Q290.12668647631006 374.8996690625322 291.6211020706154 373.7926945482319Q293.11551766492073 372.7133943967892 294.6929563477985 371.5233967939165L294.6929563477985 371.5233967939165Q305.84572457937304 362.5569032280848 316.30663373951006 352.594132599383Q326.76754289964697 342.63136197068104 335.15287484547105 329.8734806933712L335.15287484547105 329.8734806933712Q339.33170363695444 323.286982333285 341.5179783026973 315.4274632817535Q343.7042529684402 307.5402698673645 343.7042529684402 299.1826122843979Q343.7042529684402 290.82495470143135 341.4349552141248 282.63334329560985Q339.13798309695187 274.46940625264574 334.35031832260347 267.49546681255447L334.35031832260347 267.49546681255447Q327.9852148653772 258.3352527067202 318.9080238481156 252.9664263123642Q309.83083283085386 247.56992555515072 299.4806211221469 245.4943483408378Q289.1304094134399 243.3910967636674 278.1713617218678 244.19365328653507Q267.21231403029583 244.9962098094027 257.0281484987339 247.98504099801326L257.0281484987339 247.98504099801326Q255.45070981585607 248.37248207801835 255.1462918244235 248.5662026180209Q254.84187383299096 248.75992315802344 254.64815329298844 248.37248207801835L254.64815329298844 248.37248207801835Q254.45443275298587 247.98504099801326 255.25698927585356 247.56992555515072Q256.03187143586365 247.18248447514563 256.64070741872877 246.76736903228306L256.64070741872877 246.76736903228306Q261.0132567502146 244.3873738265376 267.9871961903059 242.39481970079723Q274.9611356303973 240.40226557505684 283.7339086562264 240.01482449505178Q292.5066816820556 239.59970905218918 302.46945231075745 241.50924008935706Q312.4322229394593 243.3910967636674 322.5887141081637 248.75992315802344L322.5887141081637 248.75992315802344Q333.5477617997358 254.73758553524453 339.63612162838695 263.9254740039363Q345.6968070941806 273.08568810977044 348.10447666278355 282.7440407470398Q350.484471868529 292.4023933843091 350.09703078852385 301.47958440157083Q349.6819153456613 310.52910105597505 347.689361219921 316.11932235319114ZM261.0132567502146 384.474998611229L261.0132567502146 384.474998611229Q260.0169796873445 382.86988556549363 258.52256409303914 379.382915845448Q257.0281484987339 375.89594612540236 256.25326633872373 371.10828135105396L256.25326633872373 371.10828135105396Q255.83815089586116 368.7282861453085 255.75512780728863 365.73945495669795Q255.64443035585865 362.7506237680874 255.83815089586116 360.06621057090933Q256.03187143586365 357.3541230108739 256.4469868787263 355.58296378799355Q256.83442795873134 353.7841302022557 257.63698448159903 353.7841302022557L257.63698448159903 353.7841302022557Q257.8307050216015 353.7841302022557 258.1351230130341 354.8634303536984Q258.4395410044666 355.9704048679986 258.7439589958992 357.3541230108739Q259.0207026244742 358.7655155166067 259.13140007590425 360.06621057090933Q259.2420975273343 361.3392312623546 259.2420975273343 361.9480672452197L259.2420975273343 361.9480672452197Q259.6295386073393 367.12317309957325 260.51511821877955 372.2982789539267Q261.42837219307717 377.5010591711376 263.227205778815 382.2610495826285L263.227205778815 382.2610495826285Q270.2011452189064 373.7096714596595 279.1676387847381 364.93689843383027Q288.13413235056976 356.16412540800115 296.6855104735389 347.11460875359694Q305.26456295936543 338.0374177363352 312.32152548802935 328.4620881876384Q319.40616237955066 318.9144330017991 322.5887141081637 308.7579418330947L322.5887141081637 308.7579418330947Q324.77498877390667 301.78400239300345 323.5019680824614 294.20122697004695Q322.20127302815865 286.61845154709056 318.4098853166804 280.44706862986686L318.4098853166804 280.44706862986686Q314.61849760520226 274.46940625264574 307.6445581651109 270.48429800116503Q300.6706187250196 266.49918974968426 292.31296114205304 264.92175106680645L292.31296114205304 264.92175106680645Q288.9090145105798 264.31291508394133 285.64343969339427 263.9254740039363Q282.3501905133511 263.5103585610737 278.75252334187553 263.5103585610737L278.75252334187553 263.5103585610737Q279.36135932474053 266.49918974968426 279.44438241331306 269.98615946972996Q279.5550798647431 273.4731291897756 279.36135932474053 276.8770758212487Q279.1676387847381 280.2533480898643 278.75252334187553 283.3528767299049Q278.3650822618704 286.424731007088 277.75624627900527 288.83240057569094L277.75624627900527 288.83240057569094Q274.9611356303973 299.57005336440295 271.19742228177654 310.4460779674025Q267.4060345702983 321.29442820754457 263.227205778815 331.2571988362464L263.227205778815 331.2571988362464Q262.81209033595246 331.8660348191115 262.1202312645148 333.1667298734143Q261.42837219307717 334.43975056485954 261.0132567502146 334.43975056485954L261.0132567502146 334.43975056485954Q260.6258156702096 334.43975056485954 260.6258156702096 332.8623118819818Q260.6258156702096 331.2571988362464 260.81953621021205 330.6760372162388L260.81953621021205 330.6760372162388Q261.0132567502146 328.26836764763584 261.62209273307974 324.7813979275902Q262.23092871594486 321.29442820754457 262.9227877873825 317.7244353989264Q263.61464685882015 314.1267682274507 264.4172033816877 310.6397985074051Q265.2197599045554 307.15282878735945 265.9946420645656 304.772833581614L265.9946420645656 304.772833581614Q266.40975750742814 303.5551616158838 267.4890576588708 298.98889174439535Q268.596032173171 294.3949475100495 269.78602977604373 288.4172851328284Q270.97602737891646 282.4396227556073 272.08300189321676 275.7701013069485Q273.18997640751695 269.10057985828973 273.577417487522 263.5103585610737L273.577417487522 263.5103585610737L271.19742228177654 263.5103585610737Q270.782306838914 271.2868545240327 268.98347325317616 279.4507915669967Q267.21231403029583 287.6147286099607 264.72162137312034 295.88936310435486Q262.23092871594486 304.1639975987489 259.5188411559094 312.52165518171546Q256.83442795873134 320.90698712753954 254.84187383299096 329.2646447105061L254.84187383299096 329.2646447105061Q254.45443275298587 331.06347829624394 253.76257368154825 335.4360276277297Q253.04304024725315 339.83625132207305 252.65559916724806 345.3157751678591Q252.26815808724297 350.79529901364515 252.26815808724297 356.8559844794388Q252.26815808724297 362.94434430808997 253.15373769868313 368.4238681538759Q254.0393173101233 373.90339199966195 255.83815089586116 378.2759413311478Q257.63698448159903 382.6761650254912 261.0132567502146 384.474998611229ZM327.1826583425096 314.51420930745576L327.1826583425096 314.51420930745576Q322.78243464816626 324.89209537902025 315.11663613663734 334.43975056485954Q307.4508376251084 344.01508011355634 298.48434405927674 352.870876227958Q289.51785049344505 361.75434670521724 280.0532183961782 369.72456320817867Q270.5885862989114 377.6947797111402 262.81209033595246 384.86243969123404L262.81209033595246 384.86243969123404Q261.2346516530747 386.24615783410934 258.7439589958992 385.16685768266655Q256.25326633872373 384.05988316836635 255.03559437299353 382.4824444854886L255.03559437299353 382.4824444854886Q250.85676558151022 376.8922231882725 248.86421145576983 369.91828374818124Q246.87165733002945 362.94434430808997 246.4842162500244 355.4722663365635Q246.06910080716182 348.00018836503705 246.9823547814595 340.3343898535081Q247.86793439289966 332.6685913419792 249.6667679786375 325.47325699902785L249.6667679786375 325.47325699902785Q253.65187623011826 308.9516623730973 258.7439589958992 293.5093678986093Q263.8083673988226 278.0670734241214 266.21603696742557 264.1191945439388L266.21603696742557 264.1191945439388Q255.45070981585607 265.30919214681154 246.9823547814595 268.9898824068597Q238.51399974706288 272.6705726669079 235.71888909845487 277.87335288411884L235.71888909845487 277.87335288411884Q235.71888909845487 278.260793964124 235.4144711070223 278.260793964124Q235.11005311558975 278.260793964124 235.52516855845232 276.6556809183887L235.52516855845232 276.6556809183887Q237.10260724133013 271.09313398403015 243.30166452141128 266.99732828111934Q249.47304743863495 262.9291969410661 258.02442556160406 260.6322248238931Q266.6034780474307 258.3352527067202 276.4555512247025 257.9478116267152Q286.3352987648319 257.5326961838526 295.68923341066863 259.1378092295879L295.68923341066863 259.1378092295879Q305.84572457937304 260.93664281532574 313.3178025508995 266.8036077411168Q320.78988052242585 272.6705726669079 325.0794067653392 280.5577660812969Q329.3689330082525 288.4172851328284 330.06079207969015 297.3837786986601Q330.7526511511278 306.35027226449176 327.1826583425096 314.51420930745576ZM284.3427446390915 269.2943003982923L284.3427446390915 269.2943003982923Q286.72273984483695 274.46940625264574 286.2246013134019 282.8547381984698Q285.7264627819668 291.2123957814364 283.92762919622896 300.2895867986981Q282.15646997334863 309.3391034531023 279.8594978561757 317.7244353989264Q277.5625257390027 326.08209298189297 276.37252813613 331.2571988362464L276.37252813613 331.2571988362464Q273.964858567527 340.8325283849433 270.5885862989114 350.3801835707826Q267.21231403029583 359.9555131194794 264.99836500169533 367.12317309957325L264.99836500169533 367.12317309957325Q264.0020879388252 369.91828374818124 263.61464685882015 369.91828374818124L263.61464685882015 369.91828374818124Q263.00581087595504 369.91828374818124 263.00581087595504 368.81130923388105Q263.00581087595504 367.73200908243837 263.00581087595504 366.7357320195681L263.00581087595504 366.7357320195681Q263.61464685882015 351.98529661651787 267.29533711886836 337.6499766563302Q270.97602737891646 323.286982333285 275.3762510732598 308.53654693023464L275.3762510732598 308.53654693023464Q277.94996681900784 299.57005336440295 280.3576363876108 289.8286776385611Q282.73763159335624 280.05962754986183 283.1527470362188 269.2943003982923L283.1527470362188 269.2943003982923Q283.1527470362188 267.910582255417 283.54018811622393 267.689187352557L283.54018811622393 267.689187352557Q283.7339086562264 267.689187352557 283.92762919622896 268.2980233354221Q284.14902409908893 268.9068593182872 284.3427446390915 269.2943003982923ZM308.05967360797354 351.98529661651787L308.05967360797354 351.98529661651787Q308.253394147976 352.17901715652044 307.25711708510585 353.59040966225314Q306.2608400222357 354.97412780512843 304.76642442793036 356.66226393943623Q303.27200883362514 358.350400073744 301.7775932393198 360.06621057090933Q300.2831776450146 361.75434670521724 299.67434166214946 362.33550832522485L299.67434166214946 362.33550832522485Q295.4955128706662 366.54201147956553 291.20598662775285 370.80386335962135Q286.9164603848395 375.09338960253467 282.3501905133511 378.08222079114523L282.3501905133511 378.08222079114523L264.4172033816877 389.45638392557987Q264.0020879388252 389.65010446558244 263.31022886738754 389.843825005585Q262.6183697959499 390.0375455455875 262.23092871594486 389.843825005585L262.23092871594486 389.843825005585Q261.8158132730823 389.65010446558244 261.92651072451235 389.2349890227199Q262.0095338130848 388.84754794271475 262.23092871594486 388.4601068627097L262.23092871594486 388.4601068627097Q262.42464925594743 388.0449914198472 262.81209033595246 387.65755033984203L262.81209033595246 387.65755033984203Q266.21603696742557 385.2498807712391 270.4778888474814 381.6798879626209Q274.7674150903947 378.08222079114523 279.36135932474053 374.2908330796671L279.36135932474053 374.2908330796671Q282.73763159335624 371.7171173339191 287.4145989162746 367.73200908243837Q292.11924060205047 363.74690083095754 296.60248738496637 360.14923365948187Q301.08573416788215 356.5792408508637 304.3513089850678 354.0885481936882Q307.6445581651109 351.5978555365127 308.05967360797354 351.98529661651787Z " fill="white" transform="matrix(0.9916557430933736,0,0,0.9916557430933736,0,-12.312757848567657)"/><path d="M548.4285436914685 365.44566254087795L548.4285436914685 365.44566254087795Q547.2399172266686 366.63428900567783 546.9136276088805 366.4478377955131L546.9136276088805 366.4478377955131Q546.5873379910922 366.284692986619 546.9136276088805 365.7020329548544Q547.2399172266686 365.1193729230897 547.4263684368333 364.769776904031L547.4263684368333 364.769776904031Q548.7548333092567 363.2781672227135 549.523944551186 362.5090559807842Q550.2697493918447 361.76325114012536 551.2719246464799 360.9242206943843L551.2719246464799 360.9242206943843Q547.2399172266686 355.540442000879 545.3987115262923 349.4341648679855Q543.557505825916 343.3045813338215 543.2312162081278 336.7554825767869Q542.881620189069 330.2063838197522 543.8138762398925 323.4941402538235Q544.7228258894454 316.7818966878948 546.2377419720334 310.4192491410249L546.2377419720334 310.4192491410249Q549.2675741372095 297.8337924549086 553.2063559519386 285.83099580055693Q557.1451377666676 273.8281991462052 559.8253739127849 262.75765854267695L559.8253739127849 262.75765854267695Q554.4649016205501 263.7598337973121 550.1765237867623 265.43789468879436Q545.9114523542453 267.1159555802765 544.5596810805512 269.1203060895469L544.5596810805512 269.1203060895469Q544.0702466538689 269.959336535288 543.6507314309983 269.7961917263939Q543.2312162081278 269.63304691749977 543.8837954437042 268.28127564380577L543.8837954437042 268.28127564380577Q545.2355667173982 265.43789468879436 548.7548333092567 263.17717376554754Q552.274099901115 260.9164528423007 556.8188481488794 259.4015367597126Q561.340289995373 257.88662067712454 566.630843083796 257.0475902313834Q571.9213961722189 256.20855978564236 576.7924340377714 256.3717045945365L576.7924340377714 256.3717045945365Q587.6998298324056 256.72130061359525 594.9947334300989 260.5668568232419Q602.2896370277922 264.4357194341592 602.4527818366863 271.98699344582894L602.4527818366863 271.98699344582894Q602.4527818366863 276.6715801012167 599.1898856588043 281.37947315787505Q595.9036830796517 286.0873662145333 591.2890156280757 290.18929283815646Q586.6743481764997 294.2912194617795 581.4770206931591 297.5774220409321Q576.2796932098186 300.8403182188141 572.5972818090659 302.68152391919045L572.5972818090659 302.68152391919045L571.9213961722189 305.03547044751963Q574.4384875094422 302.86797512935516 578.6336397381476 301.51620385566116Q582.828791966853 300.16443258196716 587.443459418429 300.16443258196716Q592.058126870005 300.16443258196716 596.509649512687 301.77257426963763Q600.9378657540983 303.3574095560374 604.2939875370625 306.87667614789586L604.2939875370625 306.87667614789586Q608.8387357848269 311.91085882234245 610.0972814534384 318.39003837556527Q611.3558271220502 324.8459115275175 609.3281702115091 331.0454142654934L609.3281702115091 331.0454142654934Q607.4869645111328 337.26822340473973 603.1286674735334 341.2070052194688Q598.7703704359337 345.1457870341977 594.2256221881696 347.1501375434681L594.2256221881696 347.1501375434681Q593.7361877614873 347.4997335625269 592.3844164877933 347.9192487853975Q591.0559516153698 348.33876400826796 590.7063555963111 347.82602318031513L590.7063555963111 347.82602318031513Q590.543210787417 347.4997335625269 591.5453860420522 346.5674775117035Q592.5475612966874 345.65852786215066 593.0603021246402 345.30893184309184L593.0603021246402 345.30893184309184Q597.5817439711338 342.3024060791863 600.7747209452041 337.081772194575Q603.9676979192744 331.88444471123444 604.7135027599331 326.26760200502326Q605.4826140018624 320.6507592988121 603.4549570913216 315.4534318154714Q601.4506065820511 310.2327979308602 595.5773934618635 307.3894169758488L595.5773934618635 307.3894169758488Q593.2234469335344 306.2240969123195 589.3778907238877 305.6181304792842Q585.5090281129704 305.03547044751963 581.6401655020532 305.291840861496Q577.7946092924066 305.54821127547245 574.508406713254 307.06312735806057Q571.245510535372 308.5547370393781 569.893739261678 311.74771401344833L569.893739261678 311.74771401344833Q572.9235714268541 309.906508313072 576.7924340377714 308.9043330584368Q580.637990247418 307.90215780380163 584.576772062147 307.9720770076134Q588.5388602781466 308.06530261269575 592.058126870005 309.4869930902015Q595.5773934618635 310.90868356770716 597.9313399901928 313.77537092398927L597.9313399901928 313.77537092398927Q600.7747209452041 317.29463751584774 601.1942361680747 321.1401937254943Q601.6137513909453 325.0090563364116 600.3552057223336 328.6914677371642Q599.096660053722 332.39718553918726 596.3231983025223 335.5901625132576Q593.5730429525931 338.75983308605726 590.0304699594642 340.9506348054923L590.0304699594642 340.9506348054923Q585.3458833040763 343.7940157605037 579.6358149927828 346.5674775117035Q573.9257466814893 349.34093926290313 568.2156783701957 352.277545822997Q562.5289164601729 355.2141523830908 557.3082825755616 358.4770485609728Q552.110955092221 361.76325114012536 548.4285436914685 365.44566254087795ZM568.5652743892547 317.45778232474186L568.5652743892547 317.45778232474186Q565.5354422240785 325.0090563364116 563.6010109186197 332.65355595316373Q561.6898860144317 340.27474916864526 559.3359394861027 346.66070311678584L559.3359394861027 346.66070311678584Q558.4969090403615 348.8281984349503 558.1473130213028 348.6650536260562L558.1473130213028 348.6650536260562Q557.6578785946205 348.5019088171621 557.6578785946205 347.75610397650337Q557.6578785946205 346.9869927345741 557.6578785946205 346.1479622888329L557.6578785946205 346.1479622888329Q558.1473130213028 333.39936079382255 561.340289995373 320.90712971278856Q564.5332669694433 308.391592230484 568.2156783701957 295.6429907354735L568.2156783701957 295.6429907354735Q570.569624898525 287.7654271060155 572.6672010128777 279.44504185241635Q574.7647771272304 271.1479630000879 575.1143731462892 261.56903207787707L575.1143731462892 261.56903207787707L572.2476857900072 261.56903207787707Q572.4108305989013 266.1137803256413 571.9913153760307 270.5653029683232Q571.5718001531602 274.9935192097345 570.732769707419 278.1864961838047L570.732769707419 278.1864961838047Q568.4021295803605 287.2526862780626 565.0460077973962 296.9947620091675Q561.6898860144317 306.71353133900175 557.9841682124086 315.4534318154714L557.9841682124086 315.4534318154714Q557.8210234035146 315.7797214332596 557.23836337175 317.03826710187127Q556.6557033399853 318.2968127704829 556.1429625120323 318.1336679615888L556.1429625120323 318.1336679615888Q555.8166728942442 317.9705231526947 555.7234472891619 316.6187518790007Q555.6302216840795 315.2669806053068 555.8166728942442 314.77754617862445L555.8166728942442 314.77754617862445Q555.9798177031382 312.7498892680835 556.5624777349029 309.74336350417786Q557.1451377666676 306.71353133900175 557.7277977984322 303.5205543649315Q558.3337642314675 300.35088379213187 559.0795690721261 297.32105162695575Q559.8253739127849 294.2912194617795 560.5012595496319 292.12372414361505L560.5012595496319 292.12372414361505Q560.664404358526 291.284693697874 561.4335156004554 288.2548615326979Q562.1793204411141 285.24833576879223 563.0183508868552 280.95995793500447Q563.8573813325963 276.6715801012167 564.7896373834196 271.7306230318525Q565.6985870329726 266.7896659624883 566.3744726698195 262.08177290583L566.3744726698195 262.08177290583Q565.0460077973962 262.08177290583 564.3701221605492 262.24491771472407L564.3701221605492 262.24491771472407Q563.5310917148081 268.4677268539705 561.9229500271376 274.83037440084036Q560.3381147407379 281.21632834898094 558.3337642314675 287.7654271060155Q556.3061073209265 294.2912194617795 554.3017568116561 300.77039901500234Q552.274099901115 307.2262721669547 550.7824902197976 313.77537092398927L550.7824902197976 313.77537092398927Q549.4307189461036 319.2989880251181 548.7548333092567 325.33534595419985Q548.0789476724096 331.3950102845521 548.0789476724096 337.3381426085515Q548.0789476724096 343.3045813338215 549.1044293283155 349.014649645115Q550.1066045829507 354.70141155513795 552.274099901115 359.9220454397491L552.274099901115 359.9220454397491L553.7890159837032 358.407129357161Q553.2995815570209 357.21850289236113 552.786840729068 355.540442000879Q552.274099901115 353.8623811093968 551.9478102833269 351.5317409823382L551.9478102833269 351.5317409823382Q551.6215206655387 349.66722888069137 551.5282950604565 346.82384792567984Q551.4350694553741 343.98046697066843 551.6215206655387 341.27692442328055Q551.7846654744328 338.59668827716314 552.110955092221 336.7554825767869Q552.4605511112798 334.91427687641055 553.1131303468562 334.91427687641055L553.1131303468562 334.91427687641055Q553.2995815570209 334.91427687641055 553.5326455697268 335.7533073221516Q553.7890159837032 336.5923377678928 553.9521607925973 337.7576578314221Q554.138612002762 338.94628429622196 554.3017568116561 339.94845955085714Q554.4649016205501 340.9506348054923 554.4649016205501 341.46337563344514L554.4649016205501 341.46337563344514Q554.6280464294443 342.95498531476267 554.7911912383383 344.8194974164095Q554.977642448503 346.66070311678584 555.2107064612089 348.6650536260562Q555.4670768751854 350.69271053659713 555.7234472891619 352.60383544078513Q555.9798177031382 354.53826674624383 556.4692521298206 355.89003801993783L556.4692521298206 355.89003801993783Q560.3381147407379 352.37077142807937 564.6964117783373 349.5973096768796Q569.0547088159369 346.82384792567984 573.3430866497247 344.4699013973508Q577.6314644835124 342.1159548690216 581.6401655020532 339.94845955085714Q585.6721729218646 337.7576578314221 588.7020050870408 335.5901625132576L588.7020050870408 335.5901625132576Q593.8993325703814 332.04758952012855 595.4142486529695 326.5938916228115Q596.9291647355575 321.1401937254943 593.5730429525931 316.7818966878948L593.5730429525931 316.7818966878948Q591.3822412331581 313.9385157328834 587.6066042273233 312.7498892680835Q583.8309672214882 311.5845692045542 579.8921854067593 311.8409396185307Q575.9534035920303 312.09731003250704 572.7604266179601 313.58891971382457Q569.5674496438899 315.1038357964127 568.5652743892547 317.45778232474186ZM595.2511038440753 291.7741281245562L595.2511038440753 291.7741281245562Q595.5773934618635 291.96057933472093 594.481992602146 293.5454146211208Q593.3865917424284 295.1302499075206 593.0603021246402 295.80613554436763L593.0603021246402 295.80613554436763Q598.7703704359337 294.9671050986266 603.2218930786157 291.7741281245562Q607.650109320027 288.6044575517566 610.353651867415 284.1529349090747Q613.0338880135323 279.7014122663928 613.7097736503792 274.4108591779699Q614.3623528859557 269.1203060895469 612.6842919944735 263.7598337973121L612.6842919944735 263.7598337973121Q611.0062311029913 258.3993615050774 607.1606748933447 254.69364370305428Q603.2918122824274 251.01123230230172 598.2576296079809 248.65728577397257Q593.2234469335344 246.3033392456434 587.3502338133467 245.30116399100822Q581.4770206931591 244.29898873637302 575.6038075729715 244.36890794018478Q569.7305944527839 244.46213354526714 564.3701221605492 245.4643087999023Q558.9863434670438 246.46648405453752 554.977642448503 248.33099615618437L554.977642448503 248.33099615618437Q554.138612002762 248.65728577397257 554.0453863976796 248.65728577397257Q553.9521607925973 248.65728577397257 553.7890159837032 248.49414096507846L553.7890159837032 248.49414096507846Q553.6258711748092 247.98140013712558 554.6280464294443 247.30551450027858L554.6280464294443 247.30551450027858Q558.8231986581497 243.62310309952605 565.279071810102 241.78189739914976Q571.7582513633249 239.94069169877346 578.8900101521241 239.94069169877346Q586.0217689409233 239.94069169877346 593.2234469335344 241.85181660296152Q600.448431327416 243.78624790842014 606.2284188425213 247.72502972314913Q612.0317127588971 251.68711793914872 615.807349764732 257.79339507204224Q619.5829867705669 263.92297860620624 619.909276388355 272.15013825472306L619.909276388355 272.15013825472306Q620.0724211972492 277.18432092916953 618.5575051146611 281.2862475527927Q617.0658954333437 285.41148057768635 614.5488040961204 288.6044575517566Q612.0317127588971 291.7741281245562 608.7455101797445 294.05815544907364Q605.4826140018624 296.31887637232046 601.963347410004 297.8337924549086L601.963347410004 297.8337924549086Q607.4869645111328 300.35088379213187 611.5189719309442 305.6181304792842Q615.5509793507556 310.90868356770716 617.2290402422377 316.10601105104786L617.2290402422377 316.10601105104786Q619.2333907515081 323.00470582714127 618.1379898917905 329.204208565117Q617.0658954333437 335.4037113030929 614.4555784910381 340.4378939775394Q611.8452615487324 345.47207665198596 608.5823653708504 349.0845688489268Q605.3194691929684 352.6970610458675 602.9655226646391 354.2119771284556L602.9655226646391 354.2119771284556Q598.0944847990868 357.40495410252583 593.0603021246402 359.15293419781983Q588.0261194501937 360.9242206943843 583.1550815846413 361.8331703439371Q578.2840437190889 362.76542639476054 573.8558274776776 363.0917160125488Q569.4043048349956 363.4413120316076 565.8850382431372 363.6044568405017L565.8850382431372 363.6044568405017Q563.1814956957493 363.93074645828983 563.1814956957493 363.4413120316076L563.1814956957493 363.4413120316076Q563.0183508868552 363.0917160125488 564.1137517465727 362.8586519998429Q565.2091526062902 362.60228158586654 566.0481830520314 362.4391367769724L566.0481830520314 362.4391367769724Q572.5972818090659 361.25051031217254 578.9599293559359 359.2461598029022Q585.3458833040763 357.21850289236113 591.894982061111 353.8623811093968L591.894982061111 353.8623811093968Q595.0646526339106 352.18432021791466 598.5140000219574 349.92359929466784Q601.963347410004 347.662878371421 604.8999539700978 344.56312700243313Q607.8365605301917 341.46337563344514 609.9341366445444 337.59451302252796Q612.0317127588971 333.7256504116107 612.6842919944735 329.0410637562229L612.6842919944735 329.0410637562229Q613.5233224402145 323.1678506360354 612.4512279817677 317.3645567196595Q611.3558271220502 311.5845692045542 606.8110788742858 306.2240969123195L606.8110788742858 306.2240969123195Q602.4527818366863 301.0034630277082 597.6749695762162 299.162257327332Q592.8971573157462 297.32105162695575 587.3502338133467 297.64734124474387L587.3502338133467 297.64734124474387Q586.0217689409233 297.64734124474387 586.0217689409233 297.48419643584975L586.0217689409233 297.48419643584975Q586.0217689409233 297.15790681806163 587.8629746412996 296.31887637232046Q589.704180341676 295.4798459265794 590.2169211696288 295.1302499075206L590.2169211696288 295.1302499075206Q591.7085308509463 294.1280746528854 593.3865917424284 292.7996097804621Q595.0646526339106 291.4478385067681 595.2511038440753 291.7741281245562ZM597.2554543533457 272.6628790826759L597.2554543533457 272.6628790826759Q597.2554543533457 267.2791003891706 591.5453860420522 264.85523465702965Q585.8353177307587 262.4080625236182 575.7669523818656 261.56903207787707L575.7669523818656 261.56903207787707Q576.9555788466655 266.7896659624883 577.2818684644537 271.1479630000879Q577.6314644835124 275.5062600376874 577.2119492606419 279.7946378714752Q576.7924340377714 284.05970930399235 575.6970331780539 288.67437675556835Q574.6016323183363 293.28904420714434 573.2498610446423 298.83596770954375L573.2498610446423 298.83596770954375Q576.7924340377714 297.15790681806163 580.9875862664768 293.70855943001493Q585.1827384951823 290.2825184432388 588.7719242908524 286.5068814374039Q592.3844164877933 282.73124443156894 594.8315886212048 278.9556074257341Q597.2554543533457 275.1799704198992 597.2554543533457 272.6628790826759ZM574.0888914903835 246.9792248824904L574.0888914903835 246.9792248824904Q579.798959801677 246.6529352647022 587.0938633993703 248.23777055110202Q594.4120733983343 249.82260583750187 600.2852865185218 253.3651788306309L600.2852865185218 253.3651788306309Q603.2918122824274 255.20638453100716 605.3194691929684 257.88662067712454Q607.3238197022388 260.5668568232419 608.4192205619563 263.5034633833357Q609.5146214216738 266.44006994342953 609.6777662305678 269.46990210860565Q609.8409110394621 272.4764278725112 609.0018805937209 274.9935192097345L609.0018805937209 274.9935192097345Q608.8387357848269 275.3431152287933 608.6755909759327 275.925775260558Q608.4891397657681 276.5084352923226 608.1628501479798 277.0910953240872Q607.8365605301917 277.69706175712247 607.4869645111328 278.11657697999306Q607.1606748933447 278.53609220286353 606.8110788742858 278.3496409926988L606.8110788742858 278.3496409926988Q606.3216444476036 278.3496409926988 606.3915636514153 277.18432092916953Q606.4847892564976 276.01900086564024 606.8110788742858 274.66722959194635L606.8110788742858 274.66722959194635Q607.650109320027 269.959336535288 606.0652740336271 266.44006994342953Q604.4804387472273 262.92080335157107 601.287461773157 260.4969376194301Q598.0944847990868 258.0497654860186 593.8993325703814 256.5348494034306Q589.704180341676 255.04323972211307 585.252657698994 254.20420927637198Q580.8011350563122 253.3651788306309 576.6059828276067 253.27195322554857Q572.4108305989013 253.17872762046622 569.4043048349956 253.52832363952498L569.4043048349956 253.52832363952498Q565.2091526062902 254.0177580662073 561.0839195813966 255.11315892592484Q556.9819929577734 256.20855978564236 553.4627263659149 257.56033105933636Q549.9434597740565 258.8887959317598 547.4263684368333 260.4037120143478Q544.90927709961 261.9186280969359 543.8837954437042 263.2470929693593L543.8837954437042 263.2470929693593Q542.881620189069 264.59886424305324 542.7184753801749 264.08612341510036L542.7184753801749 264.08612341510036Q542.7184753801749 263.59668898841807 543.0447649979632 262.59451373378283L543.0447649979632 262.59451373378283Q544.233391462763 259.2383919508185 547.4263684368333 256.46493019961883Q550.5960390096329 253.6914684484191 554.7911912383383 251.68711793914872Q558.9863434670438 249.65946102860775 564.0205261414903 248.49414096507846Q569.0547088159369 247.30551450027858 574.0888914903835 246.9792248824904ZM565.8850382431372 360.08519024864324L565.8850382431372 360.08519024864324Q560.3381147407379 362.2526855668077 557.0752185628558 363.93074645828983Q553.7890159837032 365.60880734977206 550.5960390096329 368.31234989716006L550.5960390096329 368.31234989716006Q550.2697493918447 368.47549470605406 549.9434597740565 368.9649291327364Q549.5938637549978 369.47766996068924 549.2675741372095 369.31452515179524L549.2675741372095 369.31452515179524Q548.9179781181508 369.1513803429011 549.2675741372095 368.3822691009717Q549.5938637549978 367.636464260313 549.9434597740565 367.2868682412542L549.9434597740565 367.2868682412542Q551.6215206655387 364.9562281141957 554.3017568116561 362.6722007896783Q556.9819929577734 360.4114798664315 561.8530308233259 358.407129357161L561.8530308233259 358.407129357161Q563.5310917148081 357.73124372031407 565.6286678291608 356.98543887965536Q567.7262439435135 356.21632763772595 569.6606752489722 355.7268932110437Q571.5718001531602 355.2141523830908 572.8303458217717 355.05100757419666Q574.0888914903835 354.88786276530254 574.4384875094422 355.3772971919849L574.4384875094422 355.3772971919849Q574.6016323183363 355.7268932110437 573.436312254807 356.37947244662007Q572.2476857900072 357.0553580834671 570.732769707419 357.8244693253964Q569.2411600261016 358.5702741660551 567.7961631473253 359.2461598029022Q566.3744726698195 359.9220454397491 565.8850382431372 360.08519024864324ZM654.9854103005868 277.51061054695776L654.9854103005868 277.51061054695776Q652.6314637722575 286.57680064121564 649.1821163842109 296.31887637232046Q645.7560753974348 306.0376457021548 642.0503575954116 314.77754617862445L642.0503575954116 314.77754617862445Q641.8872127865176 315.1038357964127 641.2113271496704 316.3623814650243Q640.5587479140942 317.62092713363586 640.2091518950352 317.45778232474186L640.2091518950352 317.45778232474186Q639.719717468353 317.45778232474186 639.7896366721649 316.0360918472361Q639.8828622772472 314.61440136973033 640.0460070861412 314.1016605417775L640.0460070861412 314.1016605417775Q640.2091518950352 312.09731003250704 640.7918119268 309.0674778673309Q641.3977783598351 306.0376457021548 641.9804383915999 302.86797512935516Q642.5630984233645 299.6749981552848 643.3089032640233 296.6451659901087Q644.0780145059526 293.63864022620317 644.7539001427996 291.4478385067681L644.7539001427996 291.4478385067681Q645.2433345694818 289.93292242418 646.5951058431759 283.89656449509823Q647.9235707155993 277.8602065660166 649.1821163842109 270.4720773632408Q650.4406620528224 263.0839481604652 651.1165476896696 256.20855978564236Q651.7924333265165 249.33317141081955 651.1165476896696 246.14019443674928L651.1165476896696 246.14019443674928Q650.7902580718813 244.62527835416122 651.1165476896696 244.62527835416122L651.1165476896696 244.62527835416122Q651.4661437087283 244.62527835416122 651.6992077214342 245.04479357703175Q651.9555781354105 245.4643087999023 652.3051741544695 245.8139048189611L652.3051741544695 245.8139048189611Q654.1463798548456 248.65728577397257 655.1485551094808 252.68929319378393Q656.1507303641159 256.72130061359525 656.4071007780925 261.14951685500654Q656.6634711920689 265.6010394976885 656.2439559691983 269.959336535288Q655.8244407463277 274.3409399741581 654.9854103005868 277.51061054695776ZM647.4341362889169 241.61875259025567L647.4341362889169 241.61875259025567Q649.7880828172462 249.65946102860775 648.949052371505 258.30613589999507Q648.1100219257638 266.9528107713824 645.6628497923524 276.01900086564024Q643.2389840602115 285.0618845586275 640.2091518950352 294.4776706719442Q637.2026261311298 303.87015038399034 635.0118244116948 313.0994852871422L635.0118244116948 313.0994852871422Q633.0074739024243 321.8160793623414 632.238362660495 330.3695286286463Q631.4925578198363 338.94628429622196 633.3337635202125 347.82602318031513L633.3337635202125 347.82602318031513Q633.8465043481654 346.9869927345741 634.4291643799301 346.66070311678584Q635.0118244116948 346.311107097727 635.6877100485417 345.8216726710448L635.6877100485417 345.8216726710448Q635.6877100485417 343.7940157605037 635.6877100485417 341.696439646151Q635.6877100485417 339.5988635317983 635.8508548574357 337.9208026403162Q636.0139996663299 336.24274174883396 636.3635956853886 335.2405664941988Q636.6898853031769 334.2383912395636 637.3657709400238 334.2383912395636L637.3657709400238 334.2383912395636Q637.528915748918 334.2383912395636 637.7852861628944 335.07742168530467Q638.0416565768708 335.91645213104573 638.2048013857649 337.01185299076326Q638.3679461946591 338.1072538504808 638.5310910035531 339.17934830892773Q638.6942358124473 340.27474916864526 638.6942358124473 340.6243451877041L638.6942358124473 340.6243451877041Q638.880687022612 341.9528100601275 638.880687022612 342.62869569697443Q638.880687022612 343.3045813338215 639.2069766404001 344.14361177956255L639.2069766404001 344.14361177956255Q639.5332662581883 343.98046697066843 640.3023775001176 343.72409655669196Q641.0481823407764 343.4677261427156 641.8872127865176 343.3045813338215L641.8872127865176 343.3045813338215Q642.7262432322585 331.2085590743874 645.7560753974348 319.2290688213063Q648.7626011613403 307.2262721669547 652.4683189633635 294.9671050986266L652.4683189633635 294.9671050986266Q654.8222654916925 287.0895414691686 656.9198416060455 278.7691562155694Q659.0174177203982 270.4720773632408 659.3437073381862 260.9164528423007L659.3437073381862 260.9164528423007Q659.3437073381862 260.0774223965596 659.8564481661391 260.0774223965596L659.8564481661391 260.0774223965596Q660.0195929750333 260.0774223965596 660.0195929750333 260.4037120143478Q660.0195929750333 260.730001632136 660.3458825928216 261.0795976511948L660.3458825928216 261.0795976511948Q662.1870882931977 265.6010394976885 661.6976538665155 272.89594309538177Q661.1849130385625 280.21415309434576 659.6699969559744 287.9984911187214Q658.178387274657 295.80613554436763 656.1507303641159 303.1010391420609Q654.1463798548456 310.4192491410249 653.1442046002104 314.77754617862445L653.1442046002104 314.77754617862445Q651.2796924985636 321.8160793623414 648.949052371505 329.1109829600347Q646.5951058431759 336.42919295899867 644.4043041237409 342.79184050586855L644.4043041237409 342.79184050586855Q647.5972810978111 342.3024060791863 651.2097732947519 342.1159548690216Q654.8222654916925 341.9528100601275 657.8287912555983 342.04603566520984Q660.8586234207743 342.1159548690216 663.1193443440212 342.20918047410396Q665.3800652672679 342.3024060791863 666.0559509041149 342.3024060791863L666.0559509041149 342.3024060791863Q670.9269887696674 342.4655508880803 676.124316253008 343.4677261427156Q681.3216437363486 344.4699013973508 685.190506347266 345.1457870341977L685.190506347266 345.1457870341977Q686.5189712196892 345.47207665198596 686.5189712196892 345.8216726710448L686.5189712196892 345.8216726710448Q686.5189712196892 346.1479622888329 686.029536793007 346.311107097727Q685.516795965054 346.4975583078917 685.190506347266 346.66070311678584L685.190506347266 346.66070311678584Q677.8023771444902 349.014649645115 670.3443287379029 348.5951344222444Q662.8629739300446 348.17561919937384 654.8222654916925 347.3365887536328L654.8222654916925 347.3365887536328Q651.7924333265165 346.9869927345741 648.5295371486344 346.82384792567984Q645.2433345694818 346.66070311678584 642.0503575954116 346.9170735307623Q638.880687022612 347.1501375434681 635.9440804625181 348.0823935942916Q633.0074739024243 349.014649645115 630.6535273740951 351.01900015438537L630.6535273740951 351.01900015438537Q626.947809572072 341.46337563344514 627.4605504000249 330.88226945659926Q627.9732912279778 320.30116327975327 630.4903825652011 309.74336350417786L630.4903825652011 309.74336350417786Q632.6578778833655 300.514028601026 635.5245652396476 291.35461290168575Q638.3679461946591 282.2185036036161 640.7918119268 273.5718287322287Q643.2389840602115 264.9251538608414 644.8238193466112 256.8844454224893Q646.4319610342817 248.82043058286666 646.245509824117 241.43230138009096L646.245509824117 241.43230138009096Q646.5951058431759 240.43012612545579 646.7582506520699 240.43012612545579L646.7582506520699 240.43012612545579Q646.9213954609639 240.26698131656167 647.0845402698582 240.84964134832632Q647.2709914800229 241.43230138009096 647.4341362889169 241.61875259025567ZM694.2566964415238 341.7896652512334L694.2566964415238 341.7896652512334Q694.582986059312 341.27692442328055 694.8393564732884 341.8828908563157Q695.095726887265 342.4655508880803 694.746130868206 343.3045813338215L694.746130868206 343.3045813338215Q693.7439556135708 345.8216726710448 692.8116995627475 347.662878371421Q691.9027499131947 349.50408407179725 689.2225137670772 351.3452897721736L689.2225137670772 351.3452897721736Q688.0338873022773 352.18432021791466 686.3558264107952 352.8602058547616Q684.6777655193131 353.53609149160866 683.162849436725 353.8623811093968Q681.6712397554076 354.2119771284556 680.4826132906077 354.2119771284556Q679.3172932270783 354.2119771284556 679.3172932270783 353.53609149160866L679.3172932270783 353.53609149160866Q679.1541484181843 353.0233506636557 680.738983704584 352.18432021791466Q682.3238189909838 351.3452897721736 682.9997046278307 351.01900015438537L682.9997046278307 351.01900015438537Q684.3514759015249 350.1799697086443 685.6799407739483 349.4341648679855Q687.0317120476421 348.6650536260562 688.3834833213363 347.662878371421L688.3834833213363 347.662878371421Q689.7119481937597 346.311107097727 691.3200898814299 344.9826422253036Q692.9049251678299 343.6308709516096 694.2566964415238 341.7896652512334ZM695.095726887265 346.82384792567984L695.095726887265 346.82384792567984Q695.5851613139472 345.9848174799388 695.5851613139472 346.66070311678584Q695.5851613139472 347.3365887536328 695.4220165050532 347.662878371421L695.4220165050532 347.662878371421Q692.9049251678299 353.37294668271454 689.6420289899478 356.37947244662007Q686.3558264107952 359.4093046117962 682.5801894049604 360.83099508930195Q678.8045523991253 362.2526855668077 674.7026257755023 362.5090559807842Q670.5773927506087 362.76542639476054 666.5686917320678 362.76542639476054L666.5686917320678 362.76542639476054Q655.311699918375 362.60228158586654 644.6606745377172 361.8331703439371Q634.0096491570596 361.0873655032784 625.4561998907545 362.76542639476054L625.4561998907545 362.76542639476054Q625.1066038716957 362.76542639476054 624.7803142539076 362.8586519998429Q624.4307182348487 362.92857120365466 625.1066038716957 362.4391367769724L625.1066038716957 362.4391367769724Q629.138611291507 358.407129357161 634.1727939659536 357.56809891141995Q639.2069766404001 356.7290684656789 644.8238193466112 357.3117284974435Q650.4406620528224 357.8943885292082 656.3138751730102 359.08301499400807Q662.1870882931977 360.24833505753736 667.7340117955972 360.4114798664315L667.7340117955972 360.4114798664315Q674.7725449793141 360.5746246753255 682.2538997871721 357.4748733063376Q689.7119481937597 354.3751219373497 695.095726887265 346.82384792567984ZM669.4120726870793 354.53826674624383L669.4120726870793 354.53826674624383Q669.4120726870793 354.88786276530254 668.7361870502324 355.05100757419666Q668.0603014133854 355.2141523830908 667.7340117955972 355.2141523830908L667.7340117955972 355.2141523830908Q665.2169204583739 355.7268932110437 660.9285426245862 355.89003801993783Q656.6634711920689 356.05318282883184 653.1442046002104 355.7268932110437L653.1442046002104 355.7268932110437Q652.3051741544695 355.7268932110437 649.2753419892932 355.47052279706725Q646.245509824117 355.2141523830908 642.3067280093879 355.30737798817313Q638.3679461946591 355.3772971919849 634.3359387748477 356.21632763772595Q630.3039313550364 357.0553580834671 627.4605504000249 359.08301499400807L627.4605504000249 359.08301499400807Q626.784664763178 359.7355942295844 626.4583751453897 359.2461598029022L626.4583751453897 359.2461598029022Q626.4583751453897 359.08301499400807 626.7147455593661 358.4770485609728Q626.947809572072 357.8943885292082 627.1342607822367 357.73124372031407L627.1342607822367 357.73124372031407Q629.4649009092952 354.0488323195615 634.4291643799301 352.1144010141029Q639.3701214492943 350.1799697086443 644.4043041237409 349.66722888069137L644.4043041237409 349.66722888069137Q649.7880828172462 349.17779445400913 655.9875855552219 350.27319531372666Q662.1870882931977 351.3452897721736 667.7340117955972 353.0233506636557L667.7340117955972 353.0233506636557Q667.8971566044912 353.0233506636557 668.6662678464205 353.53609149160866Q669.4120726870793 354.0488323195615 669.4120726870793 354.53826674624383ZM790.9083425106431 287.4158310869567L790.9083425106431 287.4158310869567Q790.9083425106431 295.1302499075206 789.4866520331374 303.776924778908Q788.0416551543611 312.4235996502953 785.1050485942673 320.8139041077062Q782.1684420341734 329.204208565117 777.810144996574 336.7554825767869Q773.4518479589743 344.30675658845666 767.4854092337044 350.08674410356195Q761.542276909705 355.89003801993783 753.9910028980352 359.31607900671395Q746.4397288863653 362.76542639476054 737.3735387921075 362.76542639476054L737.3735387921075 362.76542639476054Q728.9832343346967 362.76542639476054 722.8536508005326 357.8244693253964Q716.7240672663685 352.8602058547616 712.9484302605337 344.8194974164095Q709.1727932546986 336.7554825767869 707.7511027771931 326.3608276101056Q706.3294122996873 315.94286624215374 707.3315875543225 305.19861525641363Q708.3337628089577 294.4776706719442 711.6199653881102 284.05970930399235Q714.8828615659921 273.6650543373112 720.5929298772857 265.6010394976885Q726.3029981885792 257.56033105933636 734.3437066269313 252.59606758870157Q742.4077214665541 247.65511051933737 752.8023764332353 247.65511051933737L752.8023764332353 247.65511051933737Q761.0295360817521 247.65511051933737 766.5764595841514 251.33752192008993Q772.1000766852804 255.04323972211307 775.549424073327 260.730001632136Q778.9987714613736 266.44006994342953 780.4903811426913 273.4086839233347Q782.0052972252794 280.3772979032399 782.0052972252794 286.92639666027446L782.0052972252794 286.92639666027446Q782.0052972252794 294.80396028973246 780.676832352856 302.26200869631987Q779.3250610791619 309.74336350417786 775.9689392961976 316.7818966878948L775.9689392961976 316.7818966878948Q774.9667640415624 319.135843216224 774.8735384364801 318.39003837556527Q774.8036192326682 317.62092713363586 775.1299088504564 316.10601105104786L775.1299088504564 316.10601105104786Q776.2952289139859 310.0696531219661 777.2274849648092 304.1265207979667Q778.1597410156327 298.1600820726968 778.1597410156327 291.96057933472093L778.1597410156327 291.96057933472093Q778.1597410156327 286.0873662145333 776.9711145508328 279.18867143844Q775.8057944873034 272.3132830636172 772.9391071310214 266.44006994342953Q770.0957261760099 260.5668568232419 765.0615435015635 256.62807500851295Q760.0273608271169 252.68929319378393 752.312942006553 252.68929319378393L752.312942006553 252.68929319378393Q745.7638432495183 252.68929319378393 740.0537749382248 255.20638453100716Q734.3437066269313 257.7234758682305 729.7290391753553 261.9186280969359Q725.1143717237793 266.1137803256413 721.5951051319208 271.7306230318525Q718.0758385400626 277.34746573806365 715.5587472028393 283.3838236671454L715.5587472028393 283.3838236671454Q713.5543966935687 288.4180063415919 712.2026254198748 296.0625059583441Q710.850854146181 303.7070055750962 710.6877093372867 312.09731003250704Q710.5245645283927 320.487614489918 711.6898845919219 329.0410637562229Q712.8785110567218 337.59451302252796 716.071488030792 344.30675658845666Q719.2411586035918 351.01900015438537 724.4617924882031 355.30737798817313Q729.6591199715436 359.5724494206903 737.5366836010015 359.5724494206903L737.5366836010015 359.5724494206903Q745.7638432495183 359.5724494206903 753.151972452294 354.9577819691143Q760.5401016550699 350.3431145175383 766.4832339790693 343.37450053763325Q772.4496727043392 336.42919295899867 776.6448249330446 328.4584037244583Q780.83997716175 320.487614489918 782.6811828621263 313.58891971382457L782.6811828621263 313.58891971382457Q784.3592437536084 307.5525617847428 785.291499804432 300.0945133781554Q786.2004494539848 292.6131585702974 785.7809342311142 284.99196535481576Q785.3614190082436 277.34746573806365 783.4269877027851 270.14578774545265Q781.5158627985969 262.92080335157107 777.6470001876797 257.3039606453599Q773.7781375767626 251.68711793914872 767.8350052527632 248.23777055110202Q761.8685665274933 244.78842316305534 753.3151172611882 244.78842316305534L753.3151172611882 244.78842316305534Q740.5665157661778 244.78842316305534 731.3371808630258 251.1743771111958Q722.1078459598738 257.56033105933636 716.1414072346039 267.2791003891706Q710.1982749106045 277.0211761202754 707.3315875543225 288.7676023606507Q704.488206599311 300.514028601026 704.488206599311 311.258279586766L704.488206599311 311.258279586766Q704.488206599311 316.29246226121256 705.1640922361579 321.3965641394708Q705.8166714717344 326.52397241899973 706.1662674907931 329.8800942019641L706.1662674907931 329.8800942019641Q706.3294122996873 331.2085590743874 705.9098970768167 331.30178467946973Q705.4903818539461 331.3950102845521 704.9776410259932 330.0432390108581L704.9776410259932 330.0432390108581Q704.325061790417 327.85243729142303 703.812320962464 324.91583073132927Q703.2995801345111 321.9792241712355 702.8800649116405 318.7163279933535Q702.4605496887699 315.4534318154714 702.227485676064 312.1672292363188Q701.9711152620877 308.9043330584368 701.9711152620877 306.0376457021548L701.9711152620877 306.0376457021548Q701.9711152620877 294.2912194617795 705.0708666310755 282.4748740175926Q708.1706180000634 270.63522217213495 714.5565719482041 261.2427424600889Q720.9192194950739 251.8502627480428 730.7545208312612 245.88382402277287Q740.5665157661778 239.94069169877346 753.9910028980352 239.94069169877346L753.9910028980352 239.94069169877346Q764.0593682469283 239.94069169877346 771.0979014306453 244.46213354526714Q778.1597410156327 248.98357539176075 782.587957257044 255.95218937166592Q787.0394798997257 262.92080335157107 788.9739112051844 271.311107808982Q790.9083425106431 279.7014122663928 790.9083425106431 287.4158310869567ZM775.1299088504564 288.9307471695448L775.1299088504564 288.9307471695448Q775.1299088504564 296.15573156342646 773.4518479589743 304.1265207979667Q771.7737870674922 312.09731003250704 768.5108908896101 319.7185032479887Q765.2246883104575 327.3630028647408 760.5401016550699 333.98202082558714Q755.8322085984115 340.6243451877041 749.7958506693298 345.30893184309184L749.7958506693298 345.30893184309184Q746.9291633130478 347.4997335625269 743.6662671351656 349.014649645115Q740.4033709572838 350.5062593264324 736.5345083463664 350.5062593264324L736.5345083463664 350.5062593264324Q733.1783865634021 350.5062593264324 730.9176656401552 349.0845688489268Q728.6569447169085 347.662878371421 726.9788838254264 345.1457870341977L726.9788838254264 345.1457870341977Q725.6271125517322 343.3045813338215 726.1398533796852 343.3045813338215Q726.6292878063674 343.3045813338215 727.9810590800615 344.6330462062449L727.9810590800615 344.6330462062449Q729.4959751626494 345.9848174799388 730.987584843967 346.9869927345741Q732.5025009265552 347.98916798920914 735.0195922637785 347.98916798920914L735.0195922637785 347.98916798920914Q739.7274853204366 347.98916798920914 743.9925567529539 344.72627181132714Q748.2809345867416 341.46337563344514 751.1243155417532 338.1072538504808L751.1243155417532 338.1072538504808Q755.5059189806233 333.39936079382255 758.8620407635875 327.61937327871726Q762.218162546552 321.8160793623414 764.4788834697987 315.52335101928315Q766.7396043930456 309.23062267622504 767.9049244565748 302.7747495242728Q769.0935509213747 296.31887637232046 769.0935509213747 289.93292242418L769.0935509213747 289.93292242418Q769.0935509213747 285.7377701954746 768.3244396794454 280.703587521028Q767.5786348387868 275.66940484658153 765.4810587244339 271.21788220389965Q763.3834826100812 266.7896659624883 759.7709904131406 263.7598337973121Q756.1584982161997 260.730001632136 750.4717363061767 260.730001632136L750.4717363061767 260.730001632136Q744.2489271669302 260.730001632136 739.3778893013779 263.433544179524Q734.530157837096 266.1137803256413 730.6612952261788 270.2157069492644Q726.7924326152616 274.3409399741581 723.6926812462735 279.44504185241635Q720.5929298772857 284.5724501319453 717.9126937311684 289.44348799749764L717.9126937311684 289.44348799749764Q717.3999529032154 290.44566325213293 717.1435824892391 290.60880806102693Q716.9105184765332 290.77195286992105 716.9105184765332 290.44566325213293L716.9105184765332 290.44566325213293Q716.7240672663685 290.0960672330741 716.9105184765332 289.44348799749764L716.9105184765332 289.44348799749764Q718.7517241769095 283.2206788582513 721.9447011509798 277.18432092916953Q725.1143717237793 271.1479630000879 729.5658943664613 266.44006994342953Q734.0174170091431 261.7554832880418 739.5643405115426 258.818876727948Q745.0879576126714 255.88227016785416 751.6370563697061 255.88227016785416L751.6370563697061 255.88227016785416Q757.8365591076819 255.88227016785416 762.381307355446 259.2383919508185Q766.9027492019396 262.59451373378283 769.6762109531395 267.53547080314706Q772.4496727043392 272.4764278725112 773.7781375767626 278.27972178888706Q775.1299088504564 284.05970930399235 775.1299088504564 288.9307471695448ZM744.7616679948832 354.53826674624383L744.7616679948832 354.53826674624383Q740.892805383966 356.5659236567848 736.5345083463664 356.5659236567848L736.5345083463664 356.5659236567848Q730.4981504172846 356.5659236567848 726.1398533796852 353.2098018738204Q721.7582499408151 349.8536800908561 718.8216433807212 344.9826422253036Q715.8850368206273 340.11160435975125 714.5565719482041 334.40153604845773Q713.20480067451 328.6914677371642 713.20480067451 323.8437362728823L713.20480067451 323.8437362728823Q713.20480067451 322.81825461697656 713.367945483404 320.8139041077062Q713.5543966935687 318.80955359843574 713.7874607062746 316.87512229297715Q714.0438311202512 314.94069098751856 714.4633463431215 313.42577490493045Q714.8828615659921 311.91085882234245 715.5587472028393 311.91085882234245L715.5587472028393 311.91085882234245Q716.2346328396862 311.91085882234245 716.1414072346039 314.521175764648Q716.071488030792 317.1314927069536 716.3977776485802 321.8160793623414L716.3977776485802 321.8160793623414Q716.5609224574745 325.52179716436444 717.9126937311684 331.0454142654934Q719.2411586035918 336.5923377678928 721.7582499408151 341.696439646151Q724.2753412780384 346.82384792567984 727.9810590800615 350.5062593264324Q731.663470480814 354.2119771284556 736.5345083463664 354.2119771284556L736.5345083463664 354.2119771284556Q740.7296605750718 354.2119771284556 744.0857823580362 353.53609149160866L744.0857823580362 353.53609149160866Q745.7638432495183 353.2098018738204 746.6028736952595 353.2098018738204Q747.4419041410007 353.2098018738204 744.7616679948832 354.53826674624383ZM819.5985224747343 306.87667614789586L819.5985224747343 306.87667614789586Q818.7594920289931 312.7498892680835 818.7594920289931 318.2968127704829Q818.7594920289931 323.8437362728823 819.5985224747343 328.6914677371642Q820.4375529204752 333.56250560271656 822.0223882068752 337.5012874174456Q823.6305298945455 341.46337563344514 826.1476212317688 344.14361177956255L826.1476212317688 344.14361177956255Q829.340598205839 347.4997335625269 834.4447000840972 348.92142404003266Q839.5721083636262 350.3431145175383 845.9347559104962 349.50408407179725L845.9347559104962 349.50408407179725Q847.6128168019783 342.95498531476267 849.8968441264957 336.9186273856809Q852.1575650497426 330.88226945659926 854.2551411640953 325.17220114530573Q856.352717278448 319.4621328340122 857.8676333610362 313.9385157328834Q859.3592430423536 308.391592230484 859.3592430423536 303.03111993824916L859.3592430423536 303.03111993824916Q859.3592430423536 302.51837911029634 859.5456942525183 302.51837911029634L859.5456942525183 302.51837911029634Q859.7088390614123 302.51837911029634 859.9652094753889 303.03111993824916Q860.1982734880947 303.5205543649315 860.1982734880947 303.7070055750962L860.1982734880947 303.7070055750962Q862.2259303986356 309.906508313072 861.4568191567063 316.1992366561302Q860.7110143160475 322.4919649991883 858.6134382016947 329.0410637562229Q856.515862087342 335.5901625132576 853.8356259412247 342.3723252829981Q851.1553897951075 349.17779445400913 849.4773289036251 356.37947244662007L849.4773289036251 356.37947244662007Q848.6382984578839 359.5724494206903 848.4518472477195 363.8608272544782Q848.2887024388255 368.12589868699536 849.0578136807547 372.57742132967724Q849.8036185214133 377.0289439723591 851.738049826872 381.38724100995864Q853.6724811323307 385.74553804755817 857.1917477241892 389.1016598305225L857.1917477241892 389.1016598305225Q857.3548925330832 389.45125584958134 857.6811821508715 389.77754546736946L857.6811821508715 389.77754546736946L857.8676333610362 389.9406902762636Q857.8676333610362 389.9406902762636 857.3548925330832 389.9406902762636L857.3548925330832 389.9406902762636Q857.1917477241892 389.9406902762636 857.028602915295 389.77754546736946L857.028602915295 389.77754546736946Q852.4838546675309 386.77101970346394 849.547248107437 382.90215709254676Q846.6106415473431 379.03329448162947 845.1889510698373 374.9313678580064Q843.7672605923316 370.82944123438324 843.5108901783552 366.7042082094896Q843.2545197643789 362.60228158586654 843.9304054012258 359.2461598029022L843.9304054012258 359.2461598029022Q838.8962227267792 360.4114798664315 833.955265657415 359.5724494206903Q828.9910021867803 358.73341897494925 824.7958499580749 356.5659236567848L824.7958499580749 356.5659236567848Q823.9568195123337 356.21632763772595 823.0478698627809 355.2141523830908Q822.1156138119576 354.2119771284556 822.2787586208516 354.0488323195615L822.2787586208516 354.0488323195615Q822.2787586208516 354.0488323195615 824.8890755631572 354.46834754243207Q827.4760861041922 354.88786276530254 830.7622886833448 355.30737798817313Q834.0251848612269 355.7268932110437 837.3113874403795 355.9599572237496Q840.5742836182613 356.21632763772595 842.0891997008495 356.05318282883184L842.0891997008495 356.05318282883184Q842.5786341275317 355.89003801993783 843.184600560567 355.7968124148555Q843.7672605923316 355.7268932110437 844.6062910380728 355.3772971919849L844.6062910380728 355.3772971919849Q844.6062910380728 354.53826674624383 844.7694358469668 353.792461905585Q844.932580655861 353.0233506636557 845.2821766749197 352.18432021791466L845.2821766749197 352.18432021791466Q839.4089635547322 353.53609149160866 833.8620400523326 352.5339162369735Q828.3151165499334 351.5317409823382 823.9568195123337 347.82602318031513L823.9568195123337 347.82602318031513Q820.4375529204752 344.8194974164095 818.3399768061225 340.5311195826217Q816.2424006917698 336.24274174883396 815.1469998320523 331.2085590743874Q814.0515989723348 326.1743763999409 813.8884541634408 320.72067850262385Q813.7253093545465 315.2669806053068 814.2380501824995 309.906508313072L814.2380501824995 309.906508313072Q814.890629418076 301.35305904676704 817.5941719654637 292.6131585702974Q820.2744081115812 283.89656449509823 824.725930754263 276.4385160885108Q829.1541469956743 268.9571612806528 835.2837305298384 263.5034633833357Q841.4133140640025 258.0497654860186 849.1277328845664 255.88227016785416L849.1277328845664 255.88227016785416Q852.6469994764249 254.8567885119484 856.6790068962363 255.04323972211307Q860.7110143160475 255.20638453100716 864.2302809079061 256.5348494034306Q867.7495474997644 257.88662067712454 870.35986444207 260.3104864092654Q872.9701813843757 262.75765854267695 873.6227606199521 266.44006994342953L873.6227606199521 266.44006994342953Q874.4617910656931 270.4720773632408 872.9701813843757 274.24771436907577Q871.4552653017876 278.0233513749107 868.7750291556703 280.79681312611035Q866.0714866082823 283.5702748773101 862.715364825318 284.7355949408394Q859.3592430423536 285.9009150043687 856.352717278448 284.5724501319453L856.352717278448 284.5724501319453Q855.1640908136482 284.22285411288647 855.8399764504951 283.89656449509823L855.8399764504951 283.89656449509823Q856.1895724695538 283.73341968620423 856.352717278448 283.89656449509823Q856.515862087342 284.05970930399235 856.8421517051303 284.05970930399235L856.8421517051303 284.05970930399235Q858.8698086156713 284.40930532305117 861.3868999528944 283.2206788582513Q863.9039912901179 282.055358794722 866.0015674044706 279.86455707528694Q868.0991435188233 277.69706175712247 869.3576891874349 274.7604551970287Q870.6162348560466 271.8238486369348 870.1034940280937 268.7940164717587L870.1034940280937 268.7940164717587Q869.6140596014112 266.2769251345354 868.0059179137407 264.4357194341592Q866.4210826273412 262.59451373378283 863.9039912901179 261.40588726898295Q861.3868999528944 260.24056720545366 858.2871485839065 259.89097118639495Q855.1640908136482 259.5646815686067 851.6448242217897 260.24056720545366L851.6448242217897 260.24056720545366Q845.4453214838139 261.40588726898295 840.0615427903086 265.8574099116649Q834.7010704980738 270.30893255434677 830.5059182693684 276.76480570629906Q826.310766040663 283.2206788582513 823.4673850856515 291.1215488889799Q820.6006977293695 298.99911251843787 819.5985224747343 306.87667614789586ZM832.8598647976975 362.2526855668077L832.8598647976975 362.2526855668077Q835.2138113260268 362.60228158586654 835.540100943815 362.76542639476054Q835.866390561603 362.92857120365466 833.0230096065917 362.92857120365466L833.0230096065917 362.92857120365466Q828.3151165499334 362.92857120365466 823.5373042894631 361.41365512106665Q818.7594920289931 359.9220454397491 814.5643398002877 357.1485836885495Q810.3691875715823 354.3751219373497 807.0130657886178 350.3431145175383Q803.6569440056536 346.311107097727 801.9788831141713 341.46337563344514L801.9788831141713 341.46337563344514Q798.2964717134188 330.88226945659926 797.6205860765718 321.2334193305767Q796.9447004397249 311.5845692045542 798.4596165223128 301.8424934734494L798.4596165223128 301.8424934734494Q799.298646968054 296.6451659901087 801.1398526684303 289.93292242418Q802.9810583688064 283.2206788582513 806.267260947959 276.18214567453435Q809.5301571258411 269.1203060895469 814.4011949913937 262.24491771472407Q819.2722328569461 255.36952933990128 826.1476212317688 249.65946102860775L826.1476212317688 249.65946102860775Q833.3492992243797 243.62310309952605 842.2523445097437 241.6886717940674Q851.1553897951075 239.7542404886088 859.1960982334596 241.10601176230276Q867.2601130730822 242.45778303599675 873.4596158110579 246.88599927740805Q879.6824249503044 251.33752192008993 881.6867754595747 257.88662067712454L881.6867754595747 257.88662067712454Q881.8499202684687 258.2129102949127 882.1995162875277 259.2383919508185Q882.5258059053159 260.24056720545366 882.1995162875277 260.4037120143478L882.1995162875277 260.4037120143478Q881.8499202684687 260.5668568232419 881.5236306506807 259.72782637750083Q881.1740346316218 258.8887959317598 880.3350041858808 257.88662067712454L880.3350041858808 257.88662067712454Q873.2964710021639 248.33099615618437 864.3934257168002 245.8139048189611Q855.5136868327069 243.29681348173784 846.8670119613195 245.30116399100822Q838.2203370899323 247.30551450027858 830.5991438744508 252.94566360776034Q822.9546442576985 258.56250631397154 818.4332024112049 265.43789468879436L818.4332024112049 265.43789468879436Q810.5323323804763 277.0211761202754 806.6867761708296 290.7020336661093Q802.8179135599124 304.3595848106726 802.9810583688064 318.45995757937703L802.9810583688064 318.45995757937703Q803.1442031777007 325.33534595419985 804.4959744513945 332.39718553918726Q805.8477457250887 339.4357187229042 809.3670123169471 346.1479622888329L809.3670123169471 346.1479622888329Q812.7231340999114 352.6970610458675 819.3421520607577 357.0553580834671Q825.9844764228748 361.41365512106665 832.8598647976975 362.2526855668077ZM809.0174162978882 298.67282290064963L809.0174162978882 298.67282290064963Q810.2060427626881 289.93292242418 813.0494237176996 281.4726987629573Q815.9161110739816 272.9891687004641 820.6939233344518 266.1137803256413Q825.4717355949218 259.2383919508185 832.5102687786388 254.20420927637198Q839.5721083636262 249.17002660192546 849.1277328845664 247.1423696913845L849.1277328845664 247.1423696913845Q852.3207098586366 246.46648405453752 856.4226364822597 246.55970965961984Q860.5478695071535 246.6529352647022 864.6497961307765 248.07462574220793Q868.7750291556703 249.49631621971363 872.3642149513404 252.3396971747251Q875.9767071482812 255.20638453100716 878.3306536766105 260.24056720545366L878.3306536766105 260.24056720545366Q880.5214553960456 265.1116050710061 879.9154889630103 269.88941733147624Q879.3328289312457 274.66722959194635 877.2352528168927 278.4428665977812Q875.13767670254 282.2185036036161 872.0379253335522 284.7355949408394Q868.9381739645643 287.2526862780626 865.9083417993883 287.5789758958508L865.9083417993883 287.5789758958508Q865.4189073727058 287.7654271060155 864.6497961307765 287.67220150093317Q863.9039912901179 287.5789758958508 863.9039912901179 287.2526862780626L863.9039912901179 287.2526862780626Q863.9039912901179 286.92639666027446 864.0671360990119 286.9963158640862Q864.2302809079061 287.0895414691686 865.9083417993883 286.4136558323215L865.9083417993883 286.4136558323215Q867.0969682641881 285.9009150043687 868.6818035505879 284.64236933575705Q870.2666388369877 283.3838236671454 871.7116357157639 281.37947315787505Q873.1333261932699 279.3751226486046 874.2986462567991 276.6715801012167Q875.487272721599 273.9913439550993 875.8135623393872 270.79836698102906L875.8135623393872 270.79836698102906Q876.1398519571754 267.4422451980647 874.974531893646 264.4357194341592Q873.8092118301169 261.40588726898295 871.5251845055994 258.98202153684207Q869.2644635823525 256.5348494034306 866.257937818447 254.8567885119484Q863.2281056532707 253.17872762046622 860.0351286792005 252.68929319378393L860.0351286792005 252.68929319378393Q850.1299081392016 251.1743771111958 842.0891997008495 255.27630373481892Q834.0251848612269 259.4015367597126 827.8256821232509 266.5332955485119Q821.6028729840046 273.6650543373112 817.4077207552992 282.4748740175926Q813.2125685265936 291.284693697874 811.0450732084292 299.162257327332L811.0450732084292 299.162257327332Q811.0450732084292 299.3254021362261 810.6954771893705 300.35088379213187Q810.3691875715823 301.35305904676704 810.0428979537941 302.51837911029634Q809.6933019347351 303.7070055750962 809.4369315207588 304.61595522464904Q809.2038675080529 305.54821127547245 809.0174162978882 305.54821127547245L809.0174162978882 305.54821127547245Q808.8542714889942 305.54821127547245 808.7843522851823 304.61595522464904Q808.6911266801 303.7070055750962 808.7843522851823 302.4484599064846Q808.8542714889942 301.1899142378729 808.9474970940765 300.0945133781554Q809.0174162978882 298.99911251843787 809.0174162978882 298.67282290064963ZM866.5842274362352 357.8943885292082L866.5842274362352 357.8943885292082Q865.5820521816 361.60010633123136 863.6476208761413 367.2169490374424Q861.7131895706829 372.8337917436537 860.1982734880947 377.54168480031194L860.1982734880947 377.54168480031194Q859.7088390614123 378.87014967273535 859.3592430423536 378.87014967273535L859.3592430423536 378.87014967273535Q858.7066638067771 378.87014967273535 858.6134382016947 378.28748964097076Q858.5202125966124 377.70482960920606 858.5202125966124 377.35523359014735L858.5202125966124 377.35523359014735Q858.0307781699302 372.8337917436537 858.3570677877184 368.73186512003053Q858.7066638067771 364.6066320951369 859.7088390614123 360.5746246753255Q860.7110143160475 356.5659236567848 862.1327047935532 352.5339162369735Q863.554395271059 348.5019088171621 865.0693113536471 343.98046697066843L865.0693113536471 343.98046697066843Q867.0969682641881 338.1072538504808 868.7750291556703 332.467104742999Q870.4530900471524 326.85026203678785 870.7793796649406 319.81172885307103L870.7793796649406 319.81172885307103Q870.7793796649406 318.97269840732986 870.872605270023 318.8794728022475Q870.9425244738346 318.80955359843574 871.2921204928936 318.80955359843574L871.2921204928936 318.80955359843574L871.7815549195758 319.81172885307103Q873.4596158110579 323.3309954449294 873.2032453970816 328.5283229282701Q872.9701813843757 333.7256504116107 871.7815549195758 339.2725739140101Q870.6162348560466 344.8194974164095 869.0080931683761 349.8536800908561Q867.4232578819762 354.88786276530254 866.5842274362352 357.8943885292082ZM867.0969682641881 331.2085590743874L867.0969682641881 331.2085590743874Q864.7430217358589 337.59451302252796 861.8763343795769 344.4699013973508Q859.0329534245653 351.3452897721736 856.0031212593893 357.73124372031407L856.0031212593893 357.73124372031407Q855.8399764504951 357.8943885292082 855.4204612276245 358.8266445800316Q855.0009460047542 359.7355942295844 854.5115115780717 359.5724494206903L854.5115115780717 359.5724494206903Q854.161915559013 359.4093046117962 854.161915559013 358.4770485609728Q854.161915559013 357.56809891141995 854.161915559013 357.0553580834671L854.161915559013 357.0553580834671Q854.161915559013 355.540442000879 854.5115115780717 353.2797210776322Q854.8378011958599 351.01900015438537 855.3505420238129 348.75827923113854Q855.8399764504951 346.4975583078917 856.4226364822597 344.30675658845666Q857.028602915295 342.1159548690216 857.6811821508715 340.6243451877041L857.6811821508715 340.6243451877041Q858.0307781699302 339.5988635317983 859.1960982334596 335.170647290387Q860.3847246982594 330.71912464770514 861.5500447617886 325.4285715592822Q862.715364825318 320.13801847085915 863.391250462165 315.1038357964127Q864.0671360990119 310.0696531219661 863.391250462165 307.5525617847428L863.391250462165 307.5525617847428Q863.0649608443767 306.71353133900175 863.391250462165 306.3872417212135L863.391250462165 306.3872417212135Q863.7408464812237 306.3872417212135 863.9739104939296 306.8067569440841Q864.2302809079061 307.2262721669547 864.5798769269649 307.5525617847428L864.5798769269649 307.5525617847428Q866.0714866082823 309.906508313072 866.9105170540234 313.00625968206Q867.7495474997644 316.10601105104786 868.0059179137407 319.39221363020044Q868.2622883277173 322.65510980808244 868.0059179137407 325.7548611770703Q867.7495474997644 328.8779189473289 867.0969682641881 331.2085590743874ZM857.1917477241892 380.7113553731117L857.1917477241892 380.7113553731117Q859.1960982334596 384.9065076018171 862.0627855897416 388.6122254038403L862.0627855897416 388.6122254038403Q862.5522200164238 389.1016598305225 862.2259303986356 389.45125584958134L862.2259303986356 389.45125584958134Q861.7131895706829 389.77754546736946 861.2237551440004 389.45125584958134L861.2237551440004 389.45125584958134Q860.8741591249417 389.2881110406872 860.7110143160475 389.1016598305225L860.7110143160475 389.1016598305225Q858.3570677877184 387.7731949580991 856.8421517051303 386.4214236844051Q855.3505420238129 385.0929588119818 853.8356259412247 381.2240962010645L853.8356259412247 381.2240962010645Q853.3228851132718 379.8723249273705 852.9033698904012 377.7747488130178Q852.4838546675309 375.6771726986651 852.3207098586366 373.7660477944771Q852.1575650497426 371.8316164890184 852.2274842535543 370.47984521532453Q852.3207098586366 369.1513803429011 852.8334506865896 369.31452515179524L852.8334506865896 369.31452515179524Q853.6724811323307 369.31452515179524 854.2551411640953 371.3188756610656Q854.8378011958599 373.34653257160653 855.0009460047542 373.8359669982889L855.0009460047542 373.8359669982889Q855.6768316416011 375.6771726986651 856.0031212593893 377.35523359014735Q856.352717278448 379.03329448162947 857.1917477241892 380.7113553731117Z " fill="#dbb98f" transform="matrix(0.9916557430933736,0,0,0.9916557430933736,0,-12.312757848567657)"/></g></svg>